<mxfile host="app.diagrams.net" modified="2023-05-03T10:06:20.232Z" agent="Mozilla/5.0 (Windows NT 10.0; Win64; x64) AppleWebKit/537.36 (KHTML, like Gecko) Chrome/112.0.0.0 Safari/537.36 Edg/112.0.1722.58" etag="R5KrqfpvaYACoUhBhvNs" version="21.2.6" type="github">
  <diagram name="Page-1" id="iWmm8wrZ_yys3MNYl-V9">
    <mxGraphModel dx="993" dy="573" grid="0" gridSize="10" guides="1" tooltips="1" connect="1" arrows="1" fold="1" page="1" pageScale="1" pageWidth="827" pageHeight="1169" math="0" shadow="0">
      <root>
        <mxCell id="0" />
        <mxCell id="1" parent="0" />
        <mxCell id="kj6dEqCU76vo8oZwbyAe-1" value="" style="image;points=[];aspect=fixed;html=1;align=center;shadow=0;dashed=0;image=img/lib/allied_telesis/computer_and_terminals/Personal_Computer.svg;" vertex="1" parent="1">
          <mxGeometry x="228" y="41" width="351" height="475.7" as="geometry" />
        </mxCell>
        <mxCell id="kj6dEqCU76vo8oZwbyAe-2" value="" style="image;html=1;image=img/lib/clip_art/general/Lock_128x128.png;rotation=-90;direction=south;" vertex="1" parent="1">
          <mxGeometry x="320" y="177" width="179.32" height="137.01" as="geometry" />
        </mxCell>
        <mxCell id="kj6dEqCU76vo8oZwbyAe-5" style="edgeStyle=orthogonalEdgeStyle;rounded=0;orthogonalLoop=1;jettySize=auto;html=1;exitX=1;exitY=0;exitDx=0;exitDy=0;entryX=-0.092;entryY=0.895;entryDx=0;entryDy=0;entryPerimeter=0;" edge="1" parent="1" source="kj6dEqCU76vo8oZwbyAe-2" target="kj6dEqCU76vo8oZwbyAe-2">
          <mxGeometry relative="1" as="geometry" />
        </mxCell>
      </root>
    </mxGraphModel>
  </diagram>
</mxfile>
